HIERARCHY
ROOT Hips
{
	OFFSET 0.000000 0.000000 0.000000 
	CHANNELS 6 Xposition Yposition Zposition Yrotation Zrotation Xrotation 
	JOINT Lumbar
	{
		OFFSET 0.000000 0.000000 0.000000 
		CHANNELS 3 Zrotation Xrotation Yrotation
		JOINT Neck
		{
			OFFSET 0.000000 0.445665 0.000000 
			CHANNELS 3 Zrotation Xrotation Yrotation
			End Site
			{
				OFFSET 0.000000 0.227535 0.000000 
			}
		}
		JOINT RightShoulder
		{
			OFFSET 0.019635 0.377685 0.194865 
			CHANNELS 3 Zrotation Xrotation Yrotation
			JOINT RightElbow
			{
				OFFSET 0.000000 -0.243375 0.000000 
				CHANNELS 2 Zrotation Yrotation
				JOINT RightWrist
				{
					OFFSET 0.000000 -0.264825 0.000000 
					CHANNELS 2 Zrotation Xrotation
					End Site
					{
						OFFSET 0.006600 -0.176220 0.000990 
					}
				}
			}
		}
		JOINT LeftShoulder
		{
			OFFSET 0.019635 0.377685 -0.194865 
			CHANNELS 3 Zrotation Xrotation Yrotation
			JOINT LeftElbow
			{
				OFFSET 0.000000 -0.243375 0.000000 
				CHANNELS 2 Zrotation Yrotation
				JOINT LeftWrist
				{
					OFFSET 0.000000 -0.264825 0.000000 
					CHANNELS 2 Zrotation Xrotation
					End Site
					{
						OFFSET 0.006600 -0.176220 -0.000990 
					}
				}
			}
		}
	}
	JOINT RightHip
	{
		OFFSET 0.052140 -0.069960 0.075570 
		CHANNELS 3 Zrotation Xrotation Yrotation
		JOINT RightKnee
		{
			OFFSET 0.000000 -0.402270 0.000000 
			CHANNELS 1 Zrotation
			JOINT RightAnkle
			{
				OFFSET 0.000000 -0.404085 0.000000 
				CHANNELS 3 Zrotation Xrotation Yrotation
				End Site
				{
					OFFSET 0.204105 -0.089430 0.008415 
				}
			}
		}
	}
	JOINT LeftHip
	{
		OFFSET 0.052140 -0.069960 -0.075570 
		CHANNELS 3 Zrotation Xrotation Yrotation
		JOINT LeftKnee
		{
			OFFSET 0.000000 -0.402270 0.000000 
			CHANNELS 1 Zrotation
			JOINT LeftAnkle
			{
				OFFSET 0.000000 -0.404085 0.000000 
				CHANNELS 3 Zrotation Xrotation Yrotation
				End Site
				{
					OFFSET 0.204105 -0.089430 -0.008415 
				}
			}
		}
	}
}
MOTION
Frames: 14
Frame Time: 0.02
0.00215 0.0004 0.00128 179.00452 -40.34744 -2.23562 46.53117 2.73041 -6.18248 12.4603 0.56111 -2.18474 12.81824 -13.34707 16.13285 34.83433 84.56948 2.61582 -1.01793 26.86995 5.20288 -17.06257 37.67084 -82.76213 -0.23328 6.64136 44.84665 -2.82459 -12.77952 -19.36796 -6.49479 -1.65998 -3.03563 48.8629 3.03303 2.49577 -25.22365 -6.58785 2.10209 3.26178
0.00225 0.00042 0.00112 178.94621 -40.34136 -2.23928 46.51279 2.72534 -6.00577 12.34519 0.61934 -2.18463 12.37887 -13.28776 16.29849 34.8793 84.58744 2.75468 -1.00865 26.38708 5.24907 -17.55064 38.64907 -82.8221 -0.28144 5.31409 44.86529 -2.77405 -12.52846 -19.3723 -6.49508 -1.67214 -3.04361 48.84993 3.13051 2.88397 -25.23146 -6.59026 2.07279 3.24605
0.00235 0.00044 0.00097 178.88789 -40.33531 -2.24294 46.49436 2.72032 -5.82949 12.23006 0.67768 -2.18453 11.93961 -13.22858 16.46313 34.92308 84.60546 2.89304 -0.99931 25.9031 5.29565 -18.03691 39.62442 -82.88243 -0.329 3.99252 44.8839 -2.72364 -12.27801 -19.37662 -6.49537 -1.68427 -3.05156 48.83697 3.22777 3.27137 -25.23925 -6.59267 2.04356 3.23036
0.00245 0.00047 0.00081 178.82974 -40.32925 -2.2466 46.47603 2.71526 -5.65329 12.11526 0.73578 -2.18442 11.50138 -13.16944 16.62823 34.96779 84.62328 3.03144 -0.99007 25.42137 5.34177 -18.52345 40.5997 -82.94229 -0.37694 2.66966 44.90248 -2.67325 -12.02767 -19.38095 -6.49566 -1.6964 -3.05952 48.82403 3.32496 3.65843 -25.24705 -6.59507 2.01435 3.21467
0.00255 0.00049 0.00066 178.77165 -40.32318 -2.25024 46.45777 2.71019 -5.47673 12.0006 0.79368 -2.18433 11.06351 -13.11023 16.79439 35.01394 84.64128 3.17042 -0.98082 24.94154 5.38735 -19.01181 41.57769 -83.00161 -0.42564 1.34033 44.9211 -2.62275 -11.77683 -19.3853 -6.49594 -1.70856 -3.0675 48.8111 3.42234 4.04616 -25.25487 -6.59748 1.98507 3.19895
0.00265 0.00051 0.0005 178.71282 -40.31716 -2.25394 46.43895 2.70528 -5.30106 11.88448 0.85292 -2.1842 10.62138 -13.05112 16.95575 35.05267 84.65952 3.30752 -0.97124 24.44878 5.43602 -19.49361 42.54733 -83.06408 -0.47083 0.03503 44.9397 -2.57255 -11.52726 -19.38957 -6.49625 -1.72062 -3.07539 48.79807 3.51934 4.43284 -25.26258 -6.59987 1.95596 3.18333
0.00275 0.00053 0.00034 178.65562 -40.31103 -2.25754 46.42135 2.69998 -5.12374 11.77148 0.90939 -2.18413 10.18828 -12.99182 17.12691 35.10662 84.6765 3.44809 -0.9626 23.98303 5.47833 -19.98825 43.53301 -83.12008 -0.52302 -1.3166 44.95828 -2.52176 -11.27526 -19.39399 -6.49651 -1.73288 -3.08345 48.78523 3.61701 4.82115 -25.27051 -6.60231 1.92654 3.16751
0.00285 0.00056 0.00019 178.59679 -40.30503 -2.26121 46.4025 2.69515 -4.94801 11.6555 0.96844 -2.18401 9.7469 -12.93281 17.28843 35.14597 84.696 3.58572 -0.95258 23.49156 5.52669 -20.47075 44.50335 -83.18215 -0.56876 -2.62659 44.97694 -2.47161 -11.02574 -19.39827 -6.49682 -1.74491 -3.09134 48.77226 3.71404 5.20806 -25.27825 -6.6047 1.89742 3.15188
0.00295 0.00058 4e-05 178.53642 -40.29906 -2.26505 46.38259 2.69045 -4.77385 11.53618 1.03063 -2.18382 9.29482 -12.87365 17.44055 35.16953 84.71324 3.71877 -0.9429 22.97123 5.5818 -20.93977 45.45756 -83.25133 -0.60655 -3.88163 44.99547 -2.42182 -10.77819 -19.4024 -6.49715 -1.75688 -3.09911 48.75893 3.81044 5.59311 -25.28572 -6.60703 1.86861 3.13647
0.00305 0.00061 -0.00013 178.48626 -40.29255 -2.26818 46.3702 2.68367 -4.58955 11.43698 1.07469 -2.18401 8.9025 -12.81382 17.65394 35.29007 84.72745 3.87522 -0.93734 22.62464 5.59614 -21.49044 46.51247 -83.27871 -0.68986 -5.44068 45.01407 -2.36871 -10.51612 -19.40745 -6.49725 -1.76986 -3.10785 48.7471 3.91092 5.98843 -25.29463 -6.60969 1.83785 3.11978
0.00315 0.00062 -0.00027 178.41372 -40.28741 -2.27261 46.34102 2.68212 -4.42739 11.2948 1.15704 -2.18341 8.38542 -12.7564 17.73349 35.2022 84.75827 3.9842 -0.91924 21.9069 5.69769 -21.86623 47.34979 -83.39479 -0.67733 -6.36616 45.03296 -2.32339 -10.28676 -19.41051 -6.49792 -1.78029 -3.11436 48.73247 4.00246 6.36227 -25.30056 -6.61168 1.81128 3.1058
0.00325 0.00058 -0.00034 178.28554 -40.28437 -2.28224 46.27253 2.68852 -4.32045 11.03741 1.3453 -2.18058 7.51155 -12.69801 17.47805 34.56836 84.74551 3.94478 -0.89967 20.19602 6.03144 -21.7785 47.62818 -83.75324 -0.39725 -5.47063 45.04921 -2.29308 -10.13004 -19.40836 -6.49944 -1.78708 -3.11619 48.70727 4.072 6.67513 -25.29785 -6.61162 1.79576 3.09908
0.00335 0.00053 -0.00039 178.1335 -40.28308 -2.29286 46.18565 2.70151 -4.23674 10.7362 1.57195 -2.17698 6.51539 -12.64373 17.08129 33.7209 84.76204 3.86018 -0.86278 18.10703 6.45413 -21.5118 47.68216 -84.20141 -0.02162 -3.95373 45.06658 -2.27172 -10.00871 -19.40417 -6.50169 -1.79073 -3.11554 48.67988 4.13198 6.9667 -25.29224 -6.61094 1.78457 3.09513
0.00347 0.00049 -0.00044 177.98905 -40.28202 -2.30201 46.10311 2.71548 -4.14608 10.45345 1.78036 -2.17376 5.58419 -12.59219 16.7293 32.95362 84.82841 3.80922 -0.8105 16.17534 6.8407 -21.31676 47.81246 -84.60863 0.30708 -2.77562 45.08543 -2.25043 -9.8832 -19.40073 -6.50402 -1.7936 -3.11508 48.65525 4.19479 7.26951 -25.28826 -6.61064 1.77168 3.09
